<?xml version="1.0" standalone="no"?>
<!DOCTYPE svg PUBLIC "-//W3C//DTD SVG 20010904//EN"
 "http://www.w3.org/TR/2001/REC-SVG-20010904/DTD/svg10.dtd">
<svg version="1.0" xmlns="http://www.w3.org/2000/svg"
 width="300.000000pt" height="300.000000pt" viewBox="0 0 300.000000 300.000000"
 preserveAspectRatio="xMidYMid meet">
<metadata>
Created by potrace 1.11, written by Peter Selinger 2001-2013
</metadata>
<g transform="translate(0.000000,300.000000) scale(0.100000,-0.100000)"
fill="#000000" stroke="none">
<path d="M204 2721 c-2 -2 -4 -29 -4 -60 l0 -56 57 0 58 0 1 -312 c1 -220 -2
-313 -10 -316 -6 -2 -33 -3 -59 -2 l-48 1 3 -60 3 -59 373 -1 372 -1 0 48 0
47 60 0 60 0 0 150 c0 113 -3 150 -12 151 -7 1 -29 3 -48 4 -19 1 -41 3 -48 4
-9 1 -12 12 -10 33 3 32 3 33 58 33 l55 1 2 152 2 152 -60 0 -59 0 0 48 0 47
-371 0 c-204 0 -372 -2 -375 -4z m578 -123 c2 -7 4 -65 4 -128 l-1 -115 -93
-3 c-87 -3 -92 -2 -93 18 0 11 -1 67 -1 125 0 58 1 106 1 108 1 2 41 4 90 5
64 2 90 -1 93 -10z m-1 -373 c4 -33 3 -245 -1 -246 -23 -6 -173 -2 -177 4 -4
7 -7 153 -4 232 1 18 8 20 91 20 53 0 91 -4 91 -10z"/>
<path d="M1277 2442 c-21 -4 -18 19 -20 -204 -1 -118 2 -189 8 -191 6 -2 30
-3 55 -2 25 0 48 -3 51 -8 3 -5 5 -26 3 -48 l-3 -39 120 0 119 0 0 -35 0 -35
-60 0 -60 0 0 -47 0 -48 -172 0 -173 0 -3 -57 -3 -58 259 0 259 0 -2 45 c-1
44 -1 45 29 46 17 1 43 0 59 -1 28 -2 29 0 30 76 0 19 5 21 56 21 l56 -1 5 94
5 94 50 2 c28 1 53 2 57 3 4 0 8 89 8 196 0 107 -4 195 -8 196 -59 6 -272 2
-273 -6 -1 -5 -2 -89 -3 -185 l-1 -175 -94 0 -94 0 1 183 c0 164 -1 182 -16
183 -60 3 -231 3 -245 1z"/>
<path d="M2645 1886 c-71 -49 -136 -110 -161 -151 -15 -26 -12 -25 27 13 25
23 48 39 53 35 4 -4 9 3 13 15 3 12 13 22 23 22 10 0 20 7 24 15 6 18 93 58
106 50 5 -3 6 -13 3 -23 -10 -26 -119 -185 -139 -203 -11 -9 -39 -40 -64 -70
-25 -29 -62 -71 -82 -93 -21 -22 -38 -43 -38 -46 0 -4 -28 -35 -62 -71 -35
-36 -101 -106 -147 -157 -93 -101 -97 -102 -130 -28 -10 22 -35 68 -57 101
-39 60 -64 104 -64 111 0 7 61 0 66 -7 15 -25 187 26 209 61 13 21 -4 22 -25
3 -26 -25 -118 -48 -163 -40 -29 4 -158 76 -177 97 -12 13 -63 42 -82 45 -38
8 -47 22 -34 58 6 17 17 42 24 54 14 26 15 33 4 33 -18 0 -49 -36 -56 -65 -4
-16 -24 -50 -43 -74 l-36 -43 18 -37 c11 -20 21 -40 24 -45 2 -5 -6 -7 -18 -3
-17 4 -21 2 -17 -9 3 -7 -3 -18 -14 -24 -16 -8 -20 -8 -20 4 0 9 -9 20 -20 26
-19 10 -19 10 1 -25 12 -19 24 -33 28 -30 4 2 16 -15 25 -38 21 -49 38 -84 53
-112 7 -11 21 -42 33 -70 12 -27 28 -66 37 -85 52 -118 63 -149 69 -186 3 -19
1 -34 -4 -34 -4 0 -27 -16 -50 -36 -23 -20 -48 -34 -55 -31 -15 5 -67 -20 -67
-33 0 -10 28 -40 38 -40 4 0 21 9 37 20 17 11 34 20 38 20 12 0 -12 -41 -43
-75 -15 -16 -45 -50 -66 -74 -37 -42 -87 -93 -126 -128 -10 -9 -25 -39 -34
-67 -18 -53 -40 -90 -86 -141 -32 -34 -34 -47 -14 -65 12 -9 19 -6 38 15 36
42 56 49 78 30 18 -16 21 -16 47 12 15 16 37 42 48 58 28 39 40 50 93 87 40
27 128 99 155 128 71 74 131 130 141 130 3 0 6 -6 6 -14 0 -13 27 -47 90 -116
45 -48 80 -98 80 -114 0 -26 55 -80 73 -73 24 9 21 40 -8 71 -29 31 -34 62 -9
52 9 -3 27 -9 40 -12 17 -4 31 -21 45 -51 11 -25 35 -66 53 -92 18 -25 42 -64
55 -86 12 -22 34 -48 48 -59 25 -18 25 -18 49 8 14 14 31 26 40 26 10 0 3 17
-23 58 -21 31 -41 59 -45 60 -5 2 -8 8 -8 13 0 5 -31 57 -70 114 -38 57 -70
109 -70 115 0 7 -12 24 -27 39 -16 15 -34 45 -42 67 -7 21 -22 57 -32 79 -43
96 -43 137 1 134 33 -3 60 1 60 9 0 4 -19 7 -41 8 -53 1 -68 23 -31 46 16 10
36 34 45 55 11 24 39 54 77 82 38 27 69 59 81 84 19 36 83 102 326 334 103 98
132 163 66 147 -23 -6 -25 -5 -18 17 4 13 13 31 20 39 21 26 26 38 16 44 -5 3
-25 -15 -44 -41 -33 -47 -97 -95 -97 -74 0 6 -7 11 -15 11 -25 0 -17 24 29 92
55 83 68 120 55 155 -5 14 -12 23 -15 20 -3 -3 -18 -2 -32 2 -22 7 -38 1 -87
-33z m-884 -373 c43 -45 81 -110 70 -118 -17 -10 -128 114 -123 138 5 25 14
22 53 -20z m60 -349 c27 -58 41 -153 20 -140 -5 3 -28 53 -51 111 -23 58 -46
108 -51 111 -5 3 -7 10 -3 15 10 18 53 -32 85 -97z m258 -500 c3 -16 1 -17
-13 -5 -19 16 -21 34 -3 29 6 -3 14 -13 16 -24z"/>
<path d="M2410 1671 c0 -5 -19 -8 -42 -7 -47 4 -61 -1 -53 -14 3 -5 16 -5 31
0 30 12 44 -12 25 -42 -10 -16 -10 -19 1 -16 7 2 18 14 23 27 6 12 20 24 33
28 27 7 29 33 2 33 -11 0 -20 -4 -20 -9z"/>
<path d="M2266 1514 c-4 -10 -1 -14 6 -12 15 5 23 28 10 28 -5 0 -13 -7 -16
-16z"/>
<path d="M1724 919 c-3 -5 14 -9 37 -9 48 0 49 6 2 13 -18 3 -35 1 -39 -4z"/>
</g>
</svg>
